<svg width="24px" height="24px" viewBox="0 105 24 24" version="1.1" xmlns="http://www.w3.org/2000/svg" xmlns:xlink="http://www.w3.org/1999/xlink">
    <!-- Generator: Sketch 42 (36781) - http://www.bohemiancoding.com/sketch -->
    <desc>Created with Sketch.</desc>
    <defs></defs>
    <g id="email" stroke="none" stroke-width="1" fill="none" fill-rule="evenodd" transform="translate(0.000000, 105.000000)">
        <g id="Layer_1" fill-rule="nonzero" fill="#4990E2">
            <path d="M20.4853113,3.51468866 C18.2187711,1.24824742 15.2053113,0 12,0 C8.79468866,0 5.78122887,1.24824742 3.51468866,3.51468866 C1.24824742,5.78122887 0,8.79468866 0,12 C0,15.2053113 1.24824742,18.2187711 3.51468866,20.4853113 C5.78122887,22.7517526 8.79468866,24 12,24 C13.6196784,24 15.1913072,23.6826062 16.6711918,23.0566763 L16.0928165,21.6894186 C14.7969649,22.2375588 13.4199093,22.5154639 12,22.5154639 C6.20174845,22.5154639 1.48453608,17.7982515 1.48453608,12 C1.48453608,6.20174845 6.20174845,1.48453608 12,1.48453608 C17.7982515,1.48453608 22.5154639,6.20174845 22.5154639,12 C22.5154639,14.5396948 20.9550186,15.6964454 19.5051216,15.6964454 C18.0552742,15.6964454 16.4948289,14.5397443 16.4948289,12 C16.4948289,9.52151753 14.4784825,7.50517113 12,7.50517113 C9.52151753,7.50517113 7.50517113,9.52156701 7.50517113,12 C7.50517113,14.478433 9.52151753,16.4948289 12,16.4948289 C13.4674639,16.4948289 14.7728165,15.7878928 15.593666,14.6968082 C15.8038763,15.1212371 16.0684206,15.5051876 16.3873979,15.8405443 C17.2094845,16.7049402 18.316701,17.180932 19.5051216,17.180932 C20.6935918,17.180932 21.8008082,16.7048907 22.6228948,15.8405443 C23.5238103,14.8933608 24,13.5652948 24,12 C24,8.79468866 22.7517526,5.78122887 20.4853113,3.51468866 Z M12,15.0102928 C10.3401402,15.0102928 8.98970722,13.6598598 8.98970722,12 C8.98970722,10.3401402 10.3401402,8.98970722 12,8.98970722 C13.6598598,8.98970722 15.0102928,10.3401402 15.0102928,12 C15.0102928,13.6598598 13.6598598,15.0102928 12,15.0102928 Z" id="Shape"></path>
        </g>
    </g>
</svg>