<svg width="28px" height="27px" viewBox="0 13 28 27" version="1.1" xmlns="http://www.w3.org/2000/svg" xmlns:xlink="http://www.w3.org/1999/xlink">
    <!-- Generator: Sketch 42 (36781) - http://www.bohemiancoding.com/sketch -->
    <desc>Created with Sketch.</desc>
    <defs></defs>
    <g id="placeholder" stroke="none" stroke-width="1" fill="none" fill-rule="evenodd" transform="translate(0.000000, 13.000000)">
        <g id="Capa_1" fill-rule="nonzero" fill="#4990E2">
            <g id="Group">
                <path d="M13.5,11.7 C15.237,11.7 16.65,10.28655 16.65,8.55 C16.65,6.81345 15.237,5.4 13.5,5.4 C11.763,5.4 10.35,6.81345 10.35,8.55 C10.35,10.28655 11.763,11.7 13.5,11.7 Z M13.5,6.3 C14.74065,6.3 15.75,7.30935 15.75,8.55 C15.75,9.79065 14.74065,10.8 13.5,10.8 C12.25935,10.8 11.25,9.79065 11.25,8.55 C11.25,7.30935 12.25935,6.3 13.5,6.3 Z" id="Shape"></path>
                <path d="M13.42035,24.64065 L20.3238,14.67 C22.9131,11.21805 22.5387,5.544 19.52235,2.5281 C17.89245,0.89775 15.72525,0 13.42035,0 C11.11545,0 8.94825,0.89775 7.31835,2.52765 C4.302,5.54355 3.9276,11.2176 6.50655,14.65605 L13.42035,24.64065 Z M7.95465,3.16395 C9.4149,1.70415 11.35575,0.9 13.42035,0.9 C15.48495,0.9 17.4258,1.70415 18.88605,3.16395 C21.60855,5.886 21.9438,11.0106 19.5939,14.1435 L13.42035,23.05935 L7.2369,14.13 C4.8969,11.0106 5.2326,5.886 7.95465,3.16395 Z" id="Shape"></path>
                <path d="M18.95265,19.35315 C18.70515,19.323 18.48195,19.5003 18.45315,19.74735 C18.42435,19.9944 18.60075,20.21805 18.84735,20.24685 C23.57955,20.80395 26.1,22.30515 26.1,23.175 C26.1,24.3963 21.3066,26.1 13.5,26.1 C5.6934,26.1 0.9,24.3963 0.9,23.175 C0.9,22.30515 3.42045,20.80395 8.15265,20.24685 C8.39925,20.21805 8.57565,19.99395 8.54685,19.74735 C8.5176,19.5003 8.2944,19.3221 8.04735,19.35315 C3.3093,19.91115 0,21.48255 0,23.175 C0,25.0758 4.63725,27 13.5,27 C22.36275,27 27,25.0758 27,23.175 C27,21.48255 23.6907,19.91115 18.95265,19.35315 Z" id="Shape"></path>
            </g>
        </g>
    </g>
</svg>