<svg width="17px" height="17px" viewBox="1320 28 17 17" version="1.1" xmlns="http://www.w3.org/2000/svg" xmlns:xlink="http://www.w3.org/1999/xlink">
    <!-- Generator: Sketch 42 (36781) - http://www.bohemiancoding.com/sketch -->
    <desc>Created with Sketch.</desc>
    <defs></defs>
    <g id="united-states" stroke="none" stroke-width="1" fill="none" fill-rule="evenodd" transform="translate(1320.000000, 28.000000)">
        <g id="Layer_1" fill-rule="nonzero">
            <circle id="Oval" fill="#F0F0F0" cx="7.98828125" cy="7.98828125" r="7.98828125"></circle>
            <g id="Group" transform="translate(0.249634, 1.716232)" fill="#D80027">
                <path d="M7.39134445,6.27204895 L15.7269287,6.27204895 C15.7269287,5.55104416 15.6308197,4.85256882 15.4517387,4.18813728 L7.39134445,4.18813728 L7.39134445,6.27204895 Z" id="Shape"></path>
                <path d="M7.39134445,2.10425682 L14.5544612,2.10425682 C14.0654598,1.30630241 13.4402208,0.600993347 12.7112277,0.0203451538 L7.39134445,0.0203451538 L7.39134445,2.10425682 Z" id="Shape"></path>
                <path d="M7.73864746,14.2603302 C9.61867073,14.2603302 11.346667,13.6105334 12.7112277,12.5237527 L2.7660672,12.5237527 C4.1306279,13.6105334 5.85862419,14.2603302 7.73864746,14.2603302 Z" id="Shape"></path>
                <path d="M0.92283371,10.4398411 L14.5544612,10.4398411 C14.9470415,9.79924957 15.2515012,9.09902679 15.4517387,8.35592941 L0.0255562592,8.35592941 C0.225793762,9.09902679 0.530253372,9.79924957 0.92283371,10.4398411 Z" id="Shape"></path>
            </g>
            <path d="M3.70032166,1.24748245 L4.42828499,1.24748245 L3.75115334,1.73941704 L4.00980515,2.53540558 L3.3327047,2.04347099 L2.65560425,2.53540558 L2.87902649,1.8477581 C2.28283859,2.34437332 1.76029266,2.92620728 1.32967438,3.57450623 L1.56292595,3.57450623 L1.13190201,3.88764061 C1.06475052,3.99966377 1.000345,4.11346558 0.938623047,4.22895241 L1.14444611,4.86242935 L0.76044693,4.58343239 C0.66499321,4.78566696 0.577683792,4.99245735 0.49920517,5.20355392 L0.725966263,5.90153 L1.56292595,5.90153 L0.885794296,6.39346458 L1.14444611,7.18945312 L0.467345657,6.69751854 L0.0617531586,6.99221123 C0.0211564636,7.318545 0,7.65093239 0,7.98828125 L7.98828125,7.98828125 L7.98828125,0 C6.41022125,0 4.93916054,0.457765961 3.70032166,1.24748245 Z M4.00980515,7.18945312 L3.3327047,6.69751854 L2.65560425,7.18945312 L2.91425606,6.39346458 L2.2371244,5.90153 L3.07408409,5.90153 L3.3327047,5.10554146 L3.5913253,5.90153 L4.42828499,5.90153 L3.75115334,6.39346458 L4.00980515,7.18945312 Z M3.75115334,4.06644081 L4.00980515,4.86242935 L3.3327047,4.37049477 L2.65560425,4.86242935 L2.91425606,4.06644081 L2.2371244,3.57450623 L3.07408409,3.57450623 L3.3327047,2.77851768 L3.5913253,3.57450623 L4.42828499,3.57450623 L3.75115334,4.06644081 Z M6.87516418,7.18945312 L6.19806374,6.69751854 L5.52096329,7.18945312 L5.7796151,6.39346458 L5.10248344,5.90153 L5.93944313,5.90153 L6.19806374,5.10554146 L6.45668434,5.90153 L7.29364403,5.90153 L6.61651237,6.39346458 L6.87516418,7.18945312 Z M6.61651237,4.06644081 L6.87516418,4.86242935 L6.19806374,4.37049477 L5.52096329,4.86242935 L5.7796151,4.06644081 L5.10248344,3.57450623 L5.93944313,3.57450623 L6.19806374,2.77851768 L6.45668434,3.57450623 L7.29364403,3.57450623 L6.61651237,4.06644081 Z M6.61651237,1.73941704 L6.87516418,2.53540558 L6.19806374,2.04347099 L5.52096329,2.53540558 L5.7796151,1.73941704 L5.10248344,1.24748245 L5.93944313,1.24748245 L6.19806374,0.451493912 L6.45668434,1.24748245 L7.29364403,1.24748245 L6.61651237,1.73941704 Z" id="Shape" fill="#0052B4"></path>
        </g>
    </g>
</svg>